<svg width="471" height="346" viewBox="0 0 471 346" fill="none" xmlns="http://www.w3.org/2000/svg">
<path d="M243.474 293.698H87.7486C85.2444 293.665 82.8462 292.744 81.0351 291.12C79.2239 289.496 78.1336 287.289 77.9829 284.942L64.0181 31.0198C63.9406 29.8904 64.1126 28.7581 64.523 27.6939C64.9335 26.6297 65.5736 25.6567 66.4034 24.8356C67.2331 24.0146 68.2346 23.3634 69.3449 22.9227C70.4553 22.4821 71.6506 22.2616 72.856 22.275H228.581C231.084 22.3054 233.482 23.224 235.294 24.8461C237.105 26.4682 238.196 28.6738 238.347 31.0198L252.287 284.942C252.364 286.07 252.193 287.201 251.784 288.264C251.376 289.327 250.738 290.3 249.911 291.122C249.084 291.943 248.086 292.596 246.978 293.039C245.871 293.483 244.678 293.707 243.474 293.698V293.698Z" fill="#D1ADCC"/>
<path opacity="0.8" d="M243.474 293.698H87.7486C85.2444 293.665 82.8462 292.744 81.0351 291.12C79.2239 289.496 78.1336 287.289 77.9829 284.942L64.0181 31.0198C63.9406 29.8904 64.1126 28.7581 64.523 27.6939C64.9335 26.6297 65.5736 25.6567 66.4034 24.8356C67.2331 24.0146 68.2346 23.3634 69.3449 22.9227C70.4553 22.4821 71.6506 22.2616 72.856 22.275H228.581C231.084 22.3054 233.482 23.224 235.294 24.8461C237.105 26.4682 238.196 28.6738 238.347 31.0198L252.287 284.942C252.364 286.07 252.193 287.201 251.784 288.264C251.376 289.327 250.738 290.3 249.911 291.122C249.084 291.943 248.086 292.596 246.978 293.039C245.871 293.483 244.678 293.707 243.474 293.698V293.698Z" fill="#F0FDFD"/>
<path d="M213.212 14H195.988V15.1461H213.212V14Z" fill="#D1ADCC"/>
<path d="M190.019 14H183.708V15.1461H190.019V14Z" fill="#D1ADCC"/>
<path d="M250.176 277.584H101.25C98.8515 277.562 96.5511 276.688 94.8116 275.138C93.0721 273.588 92.0228 271.476 91.8747 269.229L78.5446 26.3666C78.4705 25.2857 78.6351 24.202 79.0281 23.1836C79.421 22.1653 80.0339 21.2341 80.8281 20.4486C81.6224 19.663 82.581 19.04 83.6437 18.6186C84.7065 18.1973 85.8505 17.9866 87.0041 17.9999H235.93C238.328 18.0248 240.627 18.9017 242.364 20.454C244.101 22.0064 245.148 24.119 245.293 26.3666L258.623 269.229C258.697 270.308 258.533 271.39 258.14 272.407C257.748 273.424 257.136 274.354 256.343 275.139C255.55 275.923 254.593 276.545 253.531 276.966C252.47 277.387 251.328 277.597 250.176 277.584Z" fill="#D1ADCC"/>
<path d="M250.175 272.002H101.25C100.376 271.974 99.5443 271.646 98.9119 271.08C98.2795 270.513 97.8907 269.749 97.8194 268.931L84.4771 26.08C84.4469 25.757 84.4901 25.4316 84.6037 25.1254C84.7173 24.8192 84.8988 24.539 85.1363 24.3036C85.3744 24.0686 85.663 23.8838 85.9828 23.7613C86.3027 23.6388 86.6466 23.5814 86.9918 23.593H235.918C236.789 23.6239 237.618 23.9535 238.248 24.5196C238.878 25.0856 239.265 25.8487 239.336 26.6646L252.739 269.515C252.768 269.837 252.725 270.161 252.612 270.466C252.498 270.771 252.317 271.05 252.081 271.285C251.845 271.52 251.558 271.705 251.241 271.829C250.923 271.953 250.58 272.012 250.237 272.002H250.175ZM86.9918 23.8795C86.6883 23.8703 86.3861 23.9206 86.1045 24.0271C85.8228 24.1337 85.5679 24.2942 85.356 24.4984C85.1522 24.7101 84.9963 24.9584 84.8977 25.2283C84.7991 25.4982 84.7598 25.784 84.7823 26.0686L98.1124 268.919C98.1803 269.663 98.5355 270.358 99.1111 270.873C99.6866 271.388 100.443 271.688 101.237 271.716H250.163C250.465 271.727 250.766 271.678 251.046 271.571C251.326 271.464 251.579 271.303 251.787 271.097C251.996 270.888 252.155 270.641 252.254 270.37C252.353 270.099 252.389 269.812 252.361 269.527L239.043 26.676C238.978 25.9332 238.625 25.2385 238.051 24.7232C237.478 24.208 236.723 23.9078 235.93 23.8795H86.9918Z" fill="#F0FDFD"/>
<path opacity="0.3" d="M198.084 112.103C215.023 95.7829 213.92 68.9801 195.621 52.2371C177.321 35.494 148.755 35.151 131.817 51.4709C114.878 67.7908 115.981 94.5935 134.28 111.337C152.58 128.08 181.146 128.423 198.084 112.103Z" fill="#F0FDFD"/>
<path d="M201.469 81.7928C201.811 87.4251 200.604 93.0452 197.966 98.1135C195.11 103.55 190.676 108.118 185.175 111.291C179.674 114.465 173.33 116.114 166.875 116.05C160.184 115.994 153.623 114.312 147.831 111.169C142.038 108.026 137.21 103.528 133.818 98.1135C130.656 93.1622 128.837 87.5581 128.52 81.7928C128.219 77.3714 128.893 72.9392 130.501 68.7737C132.108 64.6081 134.613 60.7989 137.861 57.5843C141.108 54.3698 145.027 51.8191 149.372 50.092C153.718 48.3648 158.396 47.4984 163.115 47.5468C172.935 47.6429 182.352 51.2294 189.469 57.5838C196.586 63.9383 200.874 72.5887 201.469 81.7928V81.7928Z" fill="#F0FDFD"/>
<path d="M197.929 98.1136C195.072 103.55 190.639 108.118 185.138 111.291C179.637 114.465 173.293 116.114 166.837 116.05C160.147 115.994 153.586 114.312 147.794 111.169C142.001 108.026 137.173 103.528 133.781 98.1136C143.057 92.0986 154.075 88.8985 165.348 88.9446C176.923 88.9855 188.238 92.1699 197.929 98.1136V98.1136Z" fill="#D1ADCC"/>
<path d="M176.258 80.9964C182.361 75.1167 181.961 65.4583 175.366 59.4238C168.77 53.3892 158.477 53.2636 152.374 59.1433C146.271 65.023 146.671 74.6814 153.266 80.716C159.862 86.7506 170.156 86.8761 176.258 80.9964Z" fill="#D1ADCC"/>
<path d="M228.826 183.098H112.212C111.196 183.088 110.222 182.718 109.486 182.06C108.75 181.403 108.306 180.509 108.245 179.557L107.366 163.511C107.335 163.055 107.406 162.597 107.572 162.168C107.739 161.738 107.998 161.345 108.334 161.014C108.67 160.682 109.075 160.42 109.524 160.242C109.972 160.064 110.455 159.975 110.942 159.981H227.556C228.57 159.991 229.542 160.36 230.278 161.015C231.014 161.669 231.459 162.561 231.524 163.511L232.402 179.557C232.434 180.014 232.365 180.473 232.2 180.904C232.034 181.335 231.775 181.729 231.439 182.062C231.103 182.394 230.697 182.658 230.248 182.836C229.798 183.015 229.314 183.104 228.826 183.098V183.098Z" fill="#F0FDFD"/>
<path opacity="0.3" d="M193.119 151.121H144.413C143.394 151.114 142.415 150.743 141.676 150.083C140.937 149.424 140.493 148.524 140.434 147.568L140.251 144.13C140.219 143.673 140.288 143.214 140.454 142.783C140.619 142.352 140.878 141.958 141.214 141.625C141.55 141.293 141.956 141.029 142.405 140.85C142.855 140.672 143.339 140.583 143.827 140.589H192.521C193.537 140.598 194.511 140.969 195.247 141.626C195.983 142.284 196.427 143.178 196.489 144.13L196.684 147.568C196.714 148.025 196.644 148.482 196.478 148.913C196.313 149.343 196.055 149.737 195.721 150.069C195.387 150.402 194.984 150.668 194.536 150.848C194.089 151.029 193.607 151.122 193.119 151.121V151.121Z" fill="black"/>
<path opacity="0.3" d="M211.235 260.243H138.273C136.546 260.223 134.89 259.591 133.638 258.473C132.386 257.355 131.631 255.834 131.523 254.215L131.096 246.307C131.053 245.529 131.179 244.752 131.466 244.022C131.753 243.292 132.196 242.624 132.767 242.06C133.338 241.496 134.026 241.047 134.788 240.741C135.55 240.434 136.37 240.277 137.199 240.278H210.136C211.864 240.298 213.52 240.93 214.772 242.048C216.024 243.166 216.779 244.687 216.887 246.307L217.314 254.215C217.357 254.99 217.232 255.765 216.946 256.494C216.66 257.222 216.219 257.889 215.651 258.453C215.082 259.016 214.398 259.466 213.639 259.774C212.88 260.081 212.062 260.241 211.235 260.243V260.243Z" fill="black"/>
<path d="M230.962 221.906H114.336C113.321 221.893 112.349 221.521 111.613 220.865C110.878 220.208 110.433 219.315 110.369 218.364L109.49 202.319C109.46 201.862 109.53 201.404 109.696 200.973C109.863 200.543 110.122 200.15 110.457 199.817C110.793 199.485 111.198 199.221 111.647 199.042C112.095 198.863 112.579 198.773 113.066 198.777H229.68C230.696 198.787 231.67 199.158 232.406 199.815C233.142 200.472 233.586 201.367 233.648 202.319L234.539 218.364C234.567 218.821 234.495 219.278 234.328 219.708C234.161 220.137 233.902 220.53 233.567 220.862C233.232 221.194 232.828 221.458 232.38 221.637C231.932 221.817 231.449 221.908 230.962 221.906V221.906Z" fill="#F0FDFD"/>
<path d="M127.006 171.534C127.04 172.04 126.962 172.548 126.777 173.025C126.593 173.502 126.305 173.938 125.933 174.305C125.56 174.673 125.111 174.965 124.613 175.163C124.116 175.36 123.58 175.459 123.039 175.453C121.916 175.441 120.84 175.03 120.027 174.303C119.214 173.575 118.725 172.586 118.657 171.534C118.621 171.028 118.698 170.521 118.881 170.044C119.065 169.567 119.351 169.131 119.722 168.763C120.094 168.395 120.542 168.103 121.039 167.905C121.537 167.707 122.072 167.608 122.612 167.614C123.736 167.626 124.814 168.037 125.629 168.764C126.443 169.491 126.936 170.48 127.006 171.534V171.534Z" fill="#263238"/>
<path d="M139.86 171.534C139.895 172.04 139.819 172.547 139.636 173.024C139.452 173.501 139.166 173.937 138.795 174.305C138.423 174.673 137.975 174.965 137.478 175.163C136.98 175.36 136.445 175.459 135.905 175.454C134.781 175.444 133.704 175.033 132.89 174.306C132.076 173.578 131.588 172.587 131.523 171.534C131.487 171.028 131.564 170.521 131.747 170.044C131.93 169.567 132.217 169.131 132.588 168.763C132.959 168.395 133.408 168.103 133.905 167.905C134.402 167.707 134.938 167.608 135.478 167.614C136.601 167.624 137.679 168.034 138.493 168.762C139.306 169.49 139.795 170.481 139.86 171.534V171.534Z" fill="#263238"/>
<path d="M152.641 171.534C152.676 172.04 152.6 172.547 152.417 173.024C152.233 173.501 151.947 173.937 151.575 174.305C151.204 174.673 150.756 174.965 150.258 175.163C149.761 175.36 149.226 175.459 148.686 175.454C147.562 175.441 146.484 175.03 145.669 174.303C144.854 173.577 144.362 172.587 144.291 171.534C144.258 171.027 144.336 170.52 144.52 170.043C144.705 169.566 144.993 169.13 145.365 168.762C145.737 168.394 146.186 168.102 146.684 167.905C147.182 167.707 147.718 167.608 148.259 167.614C149.381 167.627 150.457 168.038 151.27 168.765C152.084 169.492 152.573 170.481 152.641 171.534Z" fill="#263238"/>
<path d="M165.519 171.534C165.553 172.039 165.475 172.546 165.291 173.022C165.107 173.498 164.821 173.934 164.45 174.301C164.079 174.669 163.631 174.961 163.135 175.159C162.638 175.357 162.104 175.458 161.564 175.453C160.44 175.441 159.363 175.03 158.548 174.303C157.733 173.576 157.24 172.587 157.17 171.534C157.136 171.028 157.214 170.522 157.398 170.046C157.582 169.569 157.868 169.134 158.239 168.766C158.61 168.399 159.058 168.107 159.554 167.908C160.051 167.71 160.585 167.61 161.125 167.614C162.249 167.626 163.326 168.037 164.141 168.764C164.956 169.491 165.449 170.48 165.519 171.534V171.534Z" fill="#263238"/>
<path d="M129.167 210.318C129.203 210.824 129.126 211.332 128.943 211.808C128.76 212.285 128.473 212.722 128.102 213.09C127.73 213.458 127.282 213.75 126.785 213.947C126.288 214.145 125.752 214.244 125.212 214.238C124.088 214.226 123.011 213.815 122.196 213.088C121.381 212.361 120.888 211.372 120.818 210.318C120.784 209.812 120.862 209.304 121.047 208.827C121.232 208.351 121.519 207.915 121.891 207.547C122.264 207.179 122.713 206.887 123.211 206.69C123.709 206.492 124.244 206.393 124.785 206.399C125.908 206.411 126.984 206.822 127.797 207.55C128.61 208.277 129.099 209.266 129.167 210.318Z" fill="#263238"/>
<path d="M141.996 210.318C142.03 210.824 141.952 211.331 141.768 211.807C141.584 212.283 141.298 212.718 140.927 213.086C140.556 213.454 140.108 213.746 139.612 213.944C139.115 214.142 138.581 214.242 138.041 214.238C136.917 214.226 135.84 213.815 135.025 213.088C134.21 212.361 133.717 211.372 133.647 210.318C133.611 209.813 133.688 209.305 133.871 208.828C134.054 208.351 134.341 207.915 134.712 207.547C135.083 207.179 135.532 206.887 136.029 206.69C136.526 206.492 137.062 206.393 137.602 206.399C138.726 206.411 139.803 206.822 140.618 207.549C141.433 208.276 141.925 209.265 141.996 210.318Z" fill="#263238"/>
<path d="M154.826 210.318C154.86 210.825 154.782 211.332 154.597 211.809C154.412 212.286 154.125 212.722 153.753 213.09C153.38 213.458 152.931 213.75 152.433 213.947C151.935 214.145 151.399 214.244 150.859 214.238C149.735 214.228 148.658 213.818 147.844 213.09C147.03 212.362 146.542 211.372 146.477 210.318C146.441 209.813 146.518 209.305 146.701 208.828C146.884 208.351 147.171 207.915 147.542 207.547C147.913 207.179 148.362 206.887 148.859 206.69C149.356 206.492 149.892 206.393 150.432 206.399C151.556 206.411 152.633 206.822 153.448 207.549C154.263 208.276 154.756 209.265 154.826 210.318Z" fill="#263238"/>
<path d="M167.643 210.318C167.679 210.824 167.602 211.332 167.419 211.808C167.236 212.285 166.949 212.722 166.578 213.09C166.207 213.458 165.758 213.75 165.261 213.947C164.764 214.145 164.228 214.244 163.688 214.238C162.564 214.226 161.487 213.815 160.672 213.088C159.857 212.361 159.364 211.372 159.294 210.318C159.26 209.812 159.338 209.304 159.523 208.827C159.708 208.351 159.995 207.915 160.367 207.547C160.74 207.179 161.189 206.887 161.687 206.69C162.185 206.492 162.721 206.393 163.261 206.399C164.385 206.409 165.462 206.819 166.276 207.547C167.09 208.274 167.578 209.265 167.643 210.318Z" fill="#263238"/>
<path d="M180.473 210.318C180.509 210.824 180.432 211.332 180.249 211.809C180.066 212.285 179.779 212.722 179.408 213.09C179.037 213.458 178.588 213.75 178.091 213.947C177.594 214.145 177.058 214.244 176.518 214.238C175.394 214.226 174.317 213.815 173.502 213.088C172.687 212.361 172.195 211.372 172.124 210.318C172.09 209.813 172.168 209.306 172.352 208.83C172.536 208.354 172.822 207.919 173.193 207.551C173.564 207.183 174.012 206.891 174.508 206.693C175.005 206.495 175.539 206.395 176.079 206.399C177.203 206.411 178.28 206.822 179.095 207.549C179.91 208.276 180.403 209.265 180.473 210.318Z" fill="#263238"/>
<path d="M193.302 210.318C193.336 210.825 193.258 211.332 193.073 211.809C192.888 212.286 192.601 212.722 192.229 213.09C191.856 213.458 191.407 213.75 190.909 213.947C190.411 214.145 189.876 214.244 189.335 214.238C188.212 214.226 187.136 213.814 186.323 213.087C185.51 212.36 185.021 211.371 184.953 210.318C184.917 209.813 184.994 209.305 185.177 208.828C185.36 208.351 185.647 207.915 186.018 207.547C186.39 207.179 186.838 206.887 187.335 206.69C187.832 206.492 188.368 206.393 188.908 206.399C190.032 206.411 191.109 206.822 191.924 207.549C192.739 208.276 193.232 209.265 193.302 210.318V210.318Z" fill="#263238"/>
<path d="M349.914 82.4615C350.228 82.8702 350.391 83.0853 350.592 83.3757L351.157 84.1716C351.521 84.7093 351.848 85.247 352.162 85.774C352.79 86.8495 353.418 87.925 353.92 89.0004C354.973 91.1364 355.878 93.3234 356.632 95.5501C358.153 99.9487 359.154 104.467 359.621 109.037L359.709 109.886C359.719 110.058 359.719 110.23 359.709 110.402V110.972C359.73 111.72 359.679 112.469 359.558 113.209C359.317 114.583 358.896 115.929 358.303 117.221C357.199 119.529 355.738 121.7 353.958 123.674C350.637 127.316 346.696 130.51 342.266 133.149L338.801 129.675C341.954 126.624 344.747 123.314 347.139 119.791C348.215 118.193 349.058 116.489 349.65 114.715C349.89 113.964 350.029 113.192 350.065 112.414C350.103 112.081 350.103 111.746 350.065 111.413V111.188C350.077 111.087 350.077 110.986 350.065 110.886L349.914 110.134C349.106 106.125 347.965 102.172 346.498 98.3033C345.77 96.3782 344.878 94.5176 343.987 92.7001C343.547 91.7859 343.045 90.8933 342.543 90.0329L341.764 88.7638L341.375 88.1723L341.048 87.6991L349.914 82.4615Z" fill="#803E3C"/>
<path d="M338.235 133.17L342.781 141.398L346.385 134.439C346.385 134.439 343.183 128.417 338.851 128.976L338.235 133.17Z" fill="#7F3E3B"/>
<path d="M346.033 141.806L349.65 136.73L346.385 134.439L342.781 141.398L346.033 141.806Z" fill="#7F3E3B"/>
<path d="M325.59 331.542C326.53 331.522 327.465 331.414 328.378 331.219C328.424 331.207 328.465 331.185 328.499 331.155C328.532 331.125 328.555 331.088 328.566 331.047C328.574 331.006 328.567 330.963 328.547 330.925C328.527 330.887 328.494 330.855 328.453 330.832C328.089 330.628 324.899 328.864 323.668 329.337C323.532 329.392 323.415 329.476 323.329 329.582C323.243 329.688 323.191 329.811 323.179 329.94C323.141 330.134 323.158 330.334 323.231 330.521C323.303 330.708 323.427 330.878 323.593 331.015C324.162 331.392 324.872 331.579 325.59 331.542V331.542ZM327.662 330.907C325.841 331.23 324.46 331.176 323.894 330.757C323.779 330.659 323.695 330.537 323.648 330.404C323.602 330.271 323.596 330.129 323.631 329.993C323.631 329.81 323.756 329.757 323.844 329.724C324.522 329.466 326.368 330.23 327.662 330.907V330.907Z" fill="#C65032"/>
<path d="M328.315 331.219H328.441C328.479 331.198 328.51 331.17 328.532 331.136C328.553 331.102 328.565 331.064 328.566 331.026C328.566 330.918 328.566 328.326 327.411 327.455C327.269 327.346 327.102 327.265 326.919 327.216C326.737 327.168 326.545 327.154 326.356 327.176C326.158 327.177 325.967 327.236 325.814 327.344C325.66 327.452 325.555 327.601 325.515 327.767C325.276 328.789 327.185 330.725 328.19 331.219H328.315ZM326.519 327.573C326.621 327.571 326.722 327.586 326.817 327.617C326.912 327.649 326.999 327.696 327.072 327.756C327.734 328.593 328.077 329.585 328.051 330.596C327.047 329.907 325.854 328.445 326.005 327.832C326.005 327.735 326.092 327.606 326.406 327.573H326.519Z" fill="#C65032"/>
<path d="M313.736 327.154C313.765 327.123 313.784 327.085 313.791 327.045C313.798 327.005 313.792 326.964 313.774 326.927C313.756 326.889 313.726 326.857 313.689 326.833C313.651 326.808 313.607 326.793 313.56 326.788C313.045 326.788 308.537 326.606 307.507 327.552V327.616C307.422 327.71 307.367 327.82 307.347 327.937C307.327 328.054 307.343 328.173 307.394 328.283C307.461 328.468 307.58 328.636 307.739 328.773C307.899 328.909 308.095 329.011 308.311 329.068C309.767 329.456 312.342 328.047 313.748 327.176L313.736 327.154ZM307.884 327.832C308.449 327.315 310.935 327.176 312.794 327.197C310.847 328.337 309.227 328.875 308.411 328.66C308.269 328.623 308.139 328.556 308.034 328.466C307.929 328.376 307.852 328.265 307.808 328.143C307.783 328.102 307.77 328.056 307.77 328.009C307.77 327.962 307.783 327.916 307.808 327.875L307.884 327.832Z" fill="#C65032"/>
<path d="M313.735 327.154C313.754 327.121 313.764 327.084 313.764 327.047C313.764 327.009 313.754 326.973 313.735 326.939C313.673 326.853 312.266 324.788 310.609 324.358C310.37 324.298 310.121 324.281 309.875 324.307C309.628 324.332 309.391 324.401 309.177 324.508C308.574 324.81 308.536 325.164 308.612 325.39C308.938 326.391 312.141 327.272 313.522 327.262C313.565 327.261 313.608 327.251 313.645 327.232C313.683 327.213 313.714 327.186 313.735 327.154ZM309.227 325.003C309.298 324.944 309.378 324.893 309.466 324.853C309.621 324.768 309.796 324.713 309.978 324.693C310.16 324.673 310.345 324.687 310.521 324.734C311.613 324.982 312.63 326.186 313.095 326.778C311.601 326.638 309.328 325.853 309.139 325.25C309.123 325.205 309.123 325.156 309.139 325.11C309.154 325.065 309.185 325.024 309.227 324.992V325.003Z" fill="#C65032"/>
<path d="M327.561 50.9609C326.305 56.3383 323.593 67.9642 327.95 71.5348C327.95 71.5348 326.243 76.9122 314.652 76.9122C301.893 76.9122 308.561 71.5348 308.561 71.5348C315.518 70.1152 315.343 65.6842 314.124 61.5328L327.561 50.9609Z" fill="#7F3E3B"/>
<path d="M306.314 38.3563C306.385 38.3661 306.457 38.3661 306.528 38.3563C306.587 38.3311 306.64 38.2961 306.684 38.2532C306.728 38.2103 306.761 38.1604 306.782 38.1064C306.803 38.0523 306.812 37.9953 306.807 37.9385C306.802 37.8817 306.784 37.8263 306.754 37.7755C306.416 37.1621 305.911 36.6269 305.282 36.2152C304.652 35.8035 303.917 35.5272 303.137 35.4095C303.006 35.4001 302.876 35.4338 302.774 35.5038C302.671 35.5738 302.603 35.6747 302.584 35.7859C302.57 35.8984 302.608 36.0112 302.691 36.0998C302.773 36.1884 302.893 36.2456 303.024 36.2591V36.2591C303.64 36.3603 304.218 36.5858 304.712 36.9169C305.205 37.2479 305.6 37.675 305.862 38.1627C305.911 38.2263 305.978 38.2777 306.058 38.3117C306.137 38.3457 306.225 38.3611 306.314 38.3563Z" fill="#263238"/>
<path d="M302.51 43.0776C301.521 44.6475 300.287 46.0948 298.843 47.3795C299.234 47.686 299.698 47.9159 300.203 48.0534C300.709 48.1908 301.243 48.2324 301.769 48.1754L302.51 43.0776Z" fill="#630F0F"/>
<path d="M303.45 41.8623C303.35 42.5829 302.81 43.1206 302.27 43.0669C301.73 43.0131 301.353 42.3785 301.454 41.658C301.554 40.9374 302.094 40.3997 302.71 40.4534C303.325 40.5072 303.538 41.1417 303.45 41.8623Z" fill="#263238"/>
<path d="M302.873 40.518L300.939 39.8512C300.939 39.8512 301.756 41.2708 302.873 40.518Z" fill="#263238"/>
<path d="M324.824 325.111L314.577 327.154L308.349 306.978L318.596 304.935L324.824 325.111Z" fill="#7F3E3B"/>
<path d="M340.546 331.004H330.035L330.851 310.151H341.374L340.546 331.004Z" fill="#7F3E3B"/>
<path d="M329.194 329.961H341.011C341.216 329.959 341.414 330.022 341.569 330.137C341.724 330.252 341.825 330.411 341.852 330.585L343.196 338.586C343.223 338.789 343.199 338.993 343.126 339.187C343.054 339.381 342.934 339.56 342.775 339.711C342.616 339.863 342.421 339.984 342.204 340.066C341.986 340.148 341.751 340.19 341.513 340.189C337.394 340.135 335.41 339.92 330.211 339.92C327.009 339.92 322.338 340.21 317.93 340.21C313.522 340.21 313.271 336.468 315.117 336.134C323.355 334.607 324.661 332.521 327.436 330.52C327.926 330.162 328.549 329.963 329.194 329.961Z" fill="#263238"/>
<path d="M313.673 325.81L324.41 321.583C324.592 321.509 324.8 321.494 324.994 321.541C325.188 321.589 325.356 321.695 325.465 321.841L330.601 328.638C330.721 328.813 330.796 329.008 330.823 329.209C330.85 329.411 330.827 329.615 330.756 329.808C330.685 330.002 330.567 330.181 330.411 330.333C330.254 330.485 330.062 330.608 329.847 330.692C326.08 332.112 324.171 332.639 319.449 334.499C316.549 335.64 310.659 338.264 306.666 339.877C302.672 341.49 300.613 338.145 302.12 337.177C308.863 332.876 310.797 329.789 312.342 326.982C312.603 326.465 313.077 326.048 313.673 325.81V325.81Z" fill="#263238"/>
<path opacity="0.2" d="M308.349 306.978L311.689 317.797L321.81 315.335L318.608 304.935L308.349 306.978Z" fill="black"/>
<path opacity="0.2" d="M341.375 310.151H330.852L330.437 320.906H340.961L341.375 310.151Z" fill="black"/>
<path d="M346.147 73.5781C350.517 74.4062 355.188 87.8605 355.188 87.8605L342.832 99.1207C342.832 99.1207 332.572 86.4731 334.669 81.827C336.791 76.9766 340.935 72.6102 346.147 73.5781Z" fill="#263238"/>
<path opacity="0.4" d="M339.165 82.1497C336.954 80.4182 335.46 80.9344 334.443 82.311C333.438 86.3118 339.391 94.6897 341.789 97.8624C342.894 94.0767 344.163 86.0967 339.165 82.1497Z" fill="black"/>
<path d="M290.78 73.847C290.78 73.847 285.757 75.3527 295.803 128.212H338.499C337.783 113.328 337.758 104.143 346.033 73.5781C340.051 72.521 333.986 71.838 327.887 71.5348C321.433 71.1364 314.953 71.1364 308.498 71.5348C300.223 72.1908 290.78 73.847 290.78 73.847Z" fill="#263238"/>
<path opacity="0.4" d="M290.391 94.1305C290.667 96.7009 291.032 99.594 291.509 102.863C295.012 100.164 297.875 92.4851 296.821 88.0111C294.318 89.751 292.148 91.8158 290.391 94.1305Z" fill="black"/>
<path d="M294.962 86.0967C292.658 91.0629 290.064 95.9266 287.189 100.669C284.347 105.583 280.984 110.263 277.143 114.651L276.339 115.5L275.937 115.92C275.799 116.059 275.686 116.189 275.472 116.382C274.717 117.088 273.875 117.723 272.961 118.275C271.346 119.232 269.578 119.986 267.712 120.512C264.458 121.402 261.079 121.916 257.666 122.039C251.274 122.257 244.875 121.769 238.628 120.587L239.319 116.07C242.207 116.07 245.234 116.07 248.109 115.866C250.998 115.744 253.875 115.471 256.724 115.049C259.37 114.695 261.959 114.074 264.434 113.199C265.434 112.833 266.369 112.348 267.21 111.758C267.531 111.527 267.821 111.268 268.076 110.983C268.076 110.983 268.227 110.811 268.327 110.693L268.616 110.338L269.206 109.628C272.357 105.46 275.164 101.108 277.607 96.6041C280.119 92.0333 282.63 87.2905 284.928 82.6229L294.962 86.0967Z" fill="#803E3C"/>
<path d="M290.78 73.847C285.544 74.9225 279.114 87.2259 279.114 87.2259L289.964 100.884C289.964 100.884 304.418 85.3008 302.697 80.5472C300.939 75.5893 297.172 72.5134 290.78 73.847Z" fill="#263238"/>
<path d="M242.333 116.758L233.279 113.177L232.375 120.888C232.375 120.888 239.909 122.792 243.676 120.888L242.333 116.758Z" fill="#7F3E3B"/>
<path d="M227.866 112.403L227 118.275L232.375 120.888L233.279 113.177L227.866 112.403Z" fill="#7F3E3B"/>
<path d="M332.107 42.3893C330.186 51.176 329.596 54.9402 323.719 58.9302C314.929 64.9313 302.685 60.9951 301.504 51.8965C300.424 43.7014 303.74 30.7097 314.376 28.2361C316.719 27.6825 319.188 27.6522 321.549 28.148C323.91 28.6438 326.082 29.6493 327.86 31.0685C329.638 32.4877 330.962 34.2734 331.706 36.2551C332.449 38.2369 332.587 40.3488 332.107 42.3893V42.3893Z" fill="#7F3E3B"/>
<path d="M309.566 44.2391C308.976 48.7239 308.75 60.3713 320.253 60.7369C334.33 61.1779 338.549 50.8748 337.294 46.7557C344.627 41.6472 345.682 32.8606 337.444 26.1389C329.207 19.4171 311.073 23.1705 306.05 29.7202C299.684 37.84 309.566 44.2391 309.566 44.2391Z" fill="#263238"/>
<path d="M323.668 28.7523C322.99 24.0202 323.518 20.7615 328.691 20.7615C333.865 20.7615 340.923 22.364 343.509 26.8917C346.096 31.4195 346.31 38.5069 339.089 37.7863C331.869 37.0658 324.485 34.4093 323.668 28.7523Z" fill="#C65032"/>
<path d="M331.68 27.6123C330.425 21.9768 336.314 6.10273 350.617 5.02725C357.248 4.54329 360.312 10.652 356.896 11.6629C363.175 11.5984 367.193 18.7073 361.341 19.772C365.963 22.3102 364.82 27.5155 358.227 30.0751C353.317 32.011 333.376 35.4202 331.68 27.6123Z" fill="#263238"/>
<path d="M346.963 33.6673C342.354 33.6673 337.545 33.0865 334.556 31.3765C333.72 30.9451 333.017 30.3493 332.504 29.6386C331.991 28.9279 331.682 28.1227 331.605 27.2897C331.601 27.219 331.629 27.1497 331.683 27.0958C331.736 27.0419 331.812 27.0074 331.894 26.9993C331.935 26.9948 331.978 26.9978 332.018 27.008C332.058 27.0183 332.095 27.0356 332.127 27.0589C332.159 27.0822 332.185 27.1109 332.203 27.1432C332.221 27.1756 332.232 27.2108 332.233 27.2467C332.309 27.9984 332.59 28.7242 333.055 29.3652C333.52 30.0061 334.155 30.5442 334.908 30.9356C340.596 34.162 353.744 33.0865 357.838 32.011C361.379 31.0216 363.778 29.0965 364.255 26.881C364.404 26.068 364.286 25.2356 363.916 24.4762C363.546 23.7168 362.937 23.0601 362.158 22.5791C362.128 22.555 362.104 22.5258 362.087 22.4934C362.071 22.4611 362.063 22.4262 362.063 22.3909C362.063 22.3556 362.071 22.3207 362.087 22.2883C362.104 22.256 362.128 22.2268 362.158 22.2027C362.216 22.1534 362.295 22.1258 362.377 22.1258C362.46 22.1258 362.539 22.1534 362.597 22.2027C363.474 22.7504 364.155 23.4961 364.566 24.3565C364.976 25.2168 365.099 26.1579 364.92 27.0746C364.406 29.4944 361.856 31.5593 358.089 32.6133C354.454 33.3981 350.71 33.7527 346.963 33.6673V33.6673Z" fill="#263238"/>
<path d="M306.364 43.0776C305.194 44.4825 304.712 46.223 305.02 47.928C305.435 50.1865 307.996 50.3371 309.855 48.896C311.713 47.4548 313.333 44.8522 311.965 42.9808C311.66 42.5766 311.24 42.2458 310.745 42.0198C310.249 41.7939 309.694 41.6804 309.133 41.6901C308.571 41.6998 308.022 41.8324 307.537 42.0753C307.053 42.3181 306.649 42.6632 306.364 43.0776Z" fill="#7F3E3B"/>
<path d="M307.08 128.212C307.08 128.212 313.183 190.042 319.525 224.887C324.636 253.032 328.679 318.819 328.679 318.819H343.02C343.02 318.819 348.118 255 345.531 227.167C338.964 156.723 353.619 150.98 338.537 128.223L307.08 128.212Z" fill="#C65032"/>
<path opacity="0.4" d="M325.138 151.583C319.455 156.691 314.868 162.618 311.588 169.091C313.259 182.986 315.243 198.409 317.352 211.917C326.009 192.723 328.692 171.932 325.138 151.583V151.583Z" fill="black"/>
<path d="M297.046 127.825C297.046 127.825 283.798 195.354 281.713 225.79C286.912 253.936 308.185 313.431 308.185 313.431L321.232 309.376C321.232 309.376 314.012 244.504 306.163 226.748C323.832 175.802 336.816 162.918 333.036 128.212C323.982 128.212 297.046 127.825 297.046 127.825Z" fill="#C65032"/>
<path d="M306.44 316.399L324.071 312.302L323.066 306.279L304.192 310.656L306.44 316.399Z" fill="#263238"/>
<path d="M326.708 319.066H344.979L345.933 313.581L326.607 313.022L326.708 319.066Z" fill="#263238"/>
<path d="M339.165 126.061L341.086 129.342C341.237 129.6 340.885 129.858 340.395 129.858H295.59C295.213 129.858 294.887 129.696 294.861 129.481L294.472 126.255C294.472 126.029 294.786 125.836 295.2 125.836H338.462C338.591 125.82 338.724 125.833 338.846 125.872C338.969 125.912 339.079 125.977 339.165 126.061V126.061Z" fill="#C65032"/>
<path opacity="0.5" d="M339.165 126.061L341.086 129.342C341.237 129.6 340.885 129.858 340.395 129.858H295.59C295.213 129.858 294.887 129.696 294.861 129.481L294.472 126.255C294.472 126.029 294.786 125.836 295.2 125.836H338.462C338.591 125.82 338.724 125.833 338.846 125.872C338.969 125.912 339.079 125.977 339.165 126.061V126.061Z" fill="black"/>
<path d="M333.35 130.191H334.506C334.744 130.191 334.92 130.084 334.907 129.965L334.355 125.663C334.355 125.534 334.141 125.438 333.915 125.438H332.748C332.522 125.438 332.346 125.534 332.358 125.663L332.898 129.965C332.923 130.105 333.124 130.191 333.35 130.191Z" fill="#C65032"/>
<path d="M317.804 98.8734C317.665 98.8715 317.531 98.832 317.42 98.7605C317.31 98.6889 317.229 98.5891 317.189 98.4754C313.095 85.5052 304.631 74.8149 300.525 73.2017C300.206 73.0339 299.822 72.9798 299.457 73.0511C299.381 73.0854 299.298 73.1059 299.213 73.1116C299.127 73.1172 299.041 73.1078 298.96 73.0839C298.879 73.0601 298.805 73.0222 298.741 72.9728C298.678 72.9233 298.627 72.8633 298.592 72.7963C298.557 72.7294 298.538 72.657 298.537 72.5836C298.535 72.5102 298.552 72.4373 298.584 72.3695C298.617 72.3017 298.666 72.2404 298.728 72.1893C298.789 72.1382 298.862 72.0984 298.942 72.0725C299.286 71.9645 299.652 71.9221 300.017 71.9481C300.381 71.9741 300.734 72.0679 301.052 72.223C305.397 73.9868 313.986 84.5265 318.281 97.7871C321.358 97.7871 326.104 97.4322 327.26 97.3462C328.691 95.8835 339.215 84.6125 335.284 72.2768C335.261 72.209 335.255 72.138 335.265 72.068C335.275 71.998 335.301 71.9303 335.342 71.8692C335.383 71.808 335.438 71.7545 335.503 71.7118C335.569 71.6691 335.644 71.6382 335.724 71.6208C335.883 71.5845 336.054 71.6037 336.197 71.6741C336.34 71.7446 336.446 71.8607 336.49 71.9972C340.872 85.7203 328.164 98.099 328.026 98.2173C327.977 98.2695 327.916 98.3126 327.847 98.344C327.778 98.3755 327.702 98.3946 327.624 98.4001C327.561 98.4001 321.295 98.8734 317.804 98.8734Z" fill="#C65032"/>
<path d="M338.612 106.466C331.768 95.4856 328.968 94.7112 327.75 91.1837C328.673 89.2111 329.99 87.3914 331.643 85.8063C330.814 85.6019 329.031 85.3008 327.875 85.118C328.001 84.634 328.139 84.1608 328.265 83.6984C327.007 83.5779 325.736 83.6287 324.497 83.8489V82.7734C322.902 82.4762 321.264 82.3856 319.638 82.5046C319.78 83.0136 319.918 83.5299 320.052 84.0533C318.796 84.2576 316.887 84.591 315.971 84.8168C317.752 86.5447 319.06 88.5912 319.801 90.8073C316.109 96.2384 301.768 131.148 325.1 133.826C348.432 136.504 345.443 117.458 338.612 106.466Z" fill="#C65032"/>
<path opacity="0.4" d="M338.612 106.466C331.768 95.4856 328.968 94.7112 327.75 91.1837C328.673 89.2111 329.99 87.3914 331.643 85.8063C330.814 85.6019 329.031 85.3008 327.875 85.118C328.001 84.634 328.139 84.1608 328.265 83.6984C327.007 83.5779 325.736 83.6287 324.497 83.8489V82.7734C322.902 82.4762 321.264 82.3856 319.638 82.5046C319.78 83.0136 319.918 83.5299 320.052 84.0533C318.796 84.2576 316.887 84.591 315.971 84.8168C317.752 86.5447 319.06 88.5912 319.801 90.8073C316.109 96.2384 301.768 131.148 325.1 133.826C348.432 136.504 345.443 117.458 338.612 106.466Z" fill="white"/>
<path d="M318.846 89.7641C318.701 90.3179 318.638 90.8852 318.658 91.4525C318.658 91.8505 319.914 92.1194 321.308 92.2377C322.702 92.356 328.553 92.5495 328.365 91.9903C328.177 91.431 328.654 90.6675 328.679 90.1942C328.704 89.721 326.356 89.6995 324.384 89.7641C322.413 89.8286 319.236 89.1618 318.846 89.7641Z" fill="#C65032"/>
<path d="M305.272 130.191H306.427C306.653 130.191 306.829 130.084 306.816 129.965L306.277 125.663C306.277 125.534 306.063 125.438 305.824 125.438H304.707C304.481 125.438 304.305 125.534 304.318 125.663L304.857 129.965C304.832 130.105 305.033 130.191 305.272 130.191Z" fill="#C65032"/>
</svg>
